<svg width="120" height="120" viewBox="0 0 120 120" fill="none" xmlns="http://www.w3.org/2000/svg">
<rect width="120" height="120" rx="20" fill="#EE7533"/>
<g filter="url(#filter0_i_161_795)">
<rect x="42" y="20" width="35" height="80" fill="white"/>
</g>
<g filter="url(#filter1_d_161_795)">
<rect x="46" y="47" width="27" height="27" rx="13.5" fill="white"/>
<rect x="47.5" y="48.5" width="24" height="24" rx="12" stroke="black" stroke-width="3"/>
</g>
<path d="M86.0908 32.9669C86.0367 32.123 88.1795 30.4086 90.3155 29.2626C94.1545 27.0708 99.7992 23.8655 103.726 21.6318C105.617 20.6002 106.657 19.914 108.129 19.6763C111.098 19.5215 109.233 23.0771 106.292 24.9247C103.65 26.6045 100.707 27.917 97.8808 29.4242C95.8488 30.451 93.8963 31.5227 91.8533 32.4566C89.0194 33.7006 86.1893 34.3101 86.0888 32.9822L86.0908 32.9669Z" fill="white"/>
<path d="M31.5749 31.2984C30.9828 31.9021 28.2758 31.4517 25.9965 30.6267C21.8016 29.2324 15.6465 27.1703 11.3615 25.7384C9.33115 25.0196 8.12579 24.7035 6.96588 23.7663C4.86847 21.6597 8.76068 20.6739 12.0996 21.6295C15.1143 22.4748 18.0562 23.7892 21.0655 24.887C23.1866 25.7141 25.2881 26.452 27.3474 27.3493C30.1657 28.6284 32.5091 30.3282 31.5876 31.2897L31.5749 31.2984Z" fill="white"/>
<path d="M85.8117 83.5244C86.3748 82.7684 88.7264 82.8864 90.699 83.4356C94.4905 84.3688 100.154 85.7817 103.99 86.7402C105.707 87.2128 106.734 87.4115 107.644 88.2459C109.286 90.2177 106.072 91.8062 102.981 91.2524C100.294 90.7516 97.741 89.7598 95.096 89.001C92.2922 88.1103 86.193 86.6517 85.6232 84.2369C85.5722 83.9813 85.625 83.7377 85.8003 83.5338L85.811 83.522L85.8117 83.5244Z" fill="white"/>
<path d="M33.0055 83.5254C33.1235 84.5958 31.0662 86.3283 28.99 87.4055C25.0943 89.578 19.2605 92.8077 15.3082 94.9937C13.5051 95.9356 12.4922 96.5692 11.0817 96.5806C8.1739 96.2112 9.6228 92.3811 12.6378 90.4366C15.2737 88.7626 18.1796 87.6036 20.9811 86.1781C24.018 84.7391 30.2515 81.2086 32.6082 82.7831C32.8499 82.957 32.9954 83.2018 33.0076 83.5087L33.0078 83.5269L33.0055 83.5254Z" fill="white"/>
<path d="M89.5966 56.2549C91.7991 54.0915 98.8812 54.7013 102.42 54.4252C104.602 54.3641 106.766 54.2809 108.554 54.2509C109.993 54.193 112.24 54.3498 112.861 54.9616C113.779 55.6749 113.346 56.7265 112.329 57.5289C108.975 60.2137 102.633 59.3368 98.6096 59.3153C95.5384 59.33 90.5594 58.9166 89.5442 57.4176C89.284 57.0949 89.2484 56.6556 89.5853 56.2711L89.6003 56.2535L89.5966 56.2549Z" fill="white"/>
<path d="M31.1005 57.4496C28.7593 59.462 21.7332 58.3835 18.1844 58.4242C16.0028 58.3403 13.838 58.2796 12.0516 58.1909C10.6121 58.1532 8.38015 57.8475 7.80159 57.1959C6.93285 56.4233 7.43435 55.4027 8.50277 54.6696C12.0277 52.2133 18.2974 53.5092 22.3105 53.7978C25.3759 53.9869 30.3164 54.7298 31.2299 56.2929C31.4682 56.6322 31.4745 57.0729 31.1128 57.4342L31.0967 57.4507L31.1005 57.4496Z" fill="white"/>
<defs>
<filter id="filter0_i_161_795" x="42" y="20" width="35" height="80" filterUnits="userSpaceOnUse" color-interpolation-filters="sRGB">
<feFlood flood-opacity="0" result="BackgroundImageFix"/>
<feBlend mode="normal" in="SourceGraphic" in2="BackgroundImageFix" result="shape"/>
<feColorMatrix in="SourceAlpha" type="matrix" values="0 0 0 0 0 0 0 0 0 0 0 0 0 0 0 0 0 0 127 0" result="hardAlpha"/>
<feOffset dx="-1" dy="-1"/>
<feComposite in2="hardAlpha" operator="arithmetic" k2="-1" k3="1"/>
<feColorMatrix type="matrix" values="0 0 0 0 0.525841 0 0 0 0 0.525841 0 0 0 0 0.525841 0 0 0 0.25 0"/>
<feBlend mode="normal" in2="shape" result="effect1_innerShadow_161_795"/>
</filter>
<filter id="filter1_d_161_795" x="46" y="47" width="28" height="28" filterUnits="userSpaceOnUse" color-interpolation-filters="sRGB">
<feFlood flood-opacity="0" result="BackgroundImageFix"/>
<feColorMatrix in="SourceAlpha" type="matrix" values="0 0 0 0 0 0 0 0 0 0 0 0 0 0 0 0 0 0 127 0" result="hardAlpha"/>
<feOffset dx="1" dy="1"/>
<feComposite in2="hardAlpha" operator="out"/>
<feColorMatrix type="matrix" values="0 0 0 0 0.498366 0 0 0 0 0.498366 0 0 0 0 0.498366 0 0 0 0.25 0"/>
<feBlend mode="normal" in2="BackgroundImageFix" result="effect1_dropShadow_161_795"/>
<feBlend mode="normal" in="SourceGraphic" in2="effect1_dropShadow_161_795" result="shape"/>
</filter>
</defs>
</svg>
