<?xml version="1.0" encoding="UTF-8"?>
<svg id="Laag_2" data-name="Laag 2" xmlns="http://www.w3.org/2000/svg" viewBox="0 0 920.05 1146.27">
  <defs>
    <style>
      .cls-1 {
        fill: #95cce4;
      }
    </style>
  </defs>
  <g id="Laag_1-2" data-name="Laag 1">
    <path class="cls-1" d="M850.21,1010.46c-36.58,143.81-162.62,132.69-299.54,124.73-48.41-2.31-96.98-.96-145.28,3.25-72.42,5.96-149.36,15.93-219.16-3.99-89.65-24.15-142.8-98.12-145.26-178.3-3.81-79.14,18.19-158.47.85-236.83-11.38-58.64-34.98-115.84-40.11-175.41-6.59-64.12,7.72-128.08,11.37-192.12C19.39,250.9-.97,132.8,86.06,53.08c124.97-112.51,286.9-8.72,435.97-24.38,87.99-6.14,179.49-43.91,266.99-21.32,70.64,16.77,114.68,76.91,109.75,139.99-2.32,56.68-33.2,111.55-46.53,166.9-18.86,68.58-4,136.26,19.21,203.14,30.99,91.08,67.05,186.98,37.77,282.22-9.76,36.41-23.89,72.07-33.97,108.45-9.66,33.67-15.72,68.65-25,102.18l-.05.19Z"/>
  </g>
</svg>