<?xml version="1.0" encoding="UTF-8"?>
<svg id="Laag_2" data-name="Laag 2" xmlns="http://www.w3.org/2000/svg" viewBox="0 0 1890.85 1060.11">
  <defs>
    <style>
      .cls-1 {
        fill: #ABE4FF;
      }
    </style>
  </defs>
  <g id="Laag_1-2" data-name="Laag 1">
    <path class="cls-1" d="M202.17,969.49C-32.14,922.3-7.8,776.5,11.87,617.98c6.13-56.07,6.26-112.43,1.67-168.58-6.29-84.18-18.94-173.74,17.11-254.02C74.62,92.21,198.61,33.03,330.35,32.84c130.09-1.79,259.25,26.36,388.73,8.85C815.89,30.44,910.92,4.97,1008.95,1c105.57-5.51,209.88,13.2,314.83,19.56,165.32,10.67,360.16-9.01,486.84,94.56,178.66,148.66.48,333,18.99,506.4,5.83,102.25,63.42,209.61,22.12,310.33-30.94,81.37-131.78,130.44-235.1,122.63-92.94-4.57-181.52-42.21-271.74-59.5-111.66-24.15-223.48-9.17-334.39,15.53-151.01,32.91-310.17,71.55-465.1,34.43-59.3-12.52-117.16-30.09-176.39-43-54.81-12.32-111.94-20.51-166.53-32.39l-.31-.07Z"/>
  </g>
</svg>