<?xml version="1.0" encoding="UTF-8"?>
<svg id="Laag_2" data-name="Laag 2" xmlns="http://www.w3.org/2000/svg" viewBox="0 0 912.94 1353.3">
  <defs>
    <style>
      .cls-1 {
        fill: #fff;
      }
    </style>
  </defs>
  <g id="Laag_1-2" data-name="Laag 1">
    <path class="cls-1" d="M840.38,1188.79c1.03,26.3-1.07,53-11.5,77.13-21.94,50.68-72.69,84.25-125.96,81.04-39.85-1.7-78.67-12.81-118.72-17.9-46.99-6.69-99.25-9.19-148.42-5.03-43.08,3.04-90.4,14.41-130.18,23.13-27.42,5.88-55.08,8.69-83.28,3.15-46.66-9.22-96.56-36.19-127.6-71-30.33-34.13-44.33-81.18-49.75-127.42-5.41-44.32,2-87.1,11.29-129.7,22.67-96.06,17.23-161.05-16.26-253.43-22.7-61.46-49.63-120.79-36.6-187.09,7.36-44.42,22.28-91.12,26.41-137.05,3.14-30.28,2.35-59.88-.83-89.75-3.82-37.27-10.46-73.72-9.83-109.91.63-56.37,14.92-112.52,44.37-160.61C135.15-32.17,247.33-5.07,356.09,30.9c89.4,33.02,134.07,50.47,225.94,10.02C626.05,22.16,669.98,2.26,717.98.62c55.37-2.93,114.33,21.55,147.01,69.72,52.76,78.83,15.49,178.99-22.48,255.27-26.64,54.45-46.51,97.44-31.26,158.36,30.09,116.81,75.28,234.87,97.04,354.3,23.73,111.61-50.27,146.52-68.69,243.48-6.32,35.22-.61,71.3.77,106.8v.23Z"/>
  </g>
</svg>