<?xml version="1.0" encoding="UTF-8"?>
<svg id="Laag_2" data-name="Laag 2" xmlns="http://www.w3.org/2000/svg" viewBox="0 0 1285.63 585.99">
  <defs>
    <style>
      .cls-1 {
        fill: #fff;
      }

      .cls-2 {
        fill: #dd4a93;
      }
    </style>
  </defs>
  <g id="Laag_1-2" data-name="Laag 1">
    <path class="cls-2" d="M302.52,539.59c-16.95.15-34.11-1.48-49.44-7.82-32.22-13.32-52.87-42.75-49.81-73,1.84-22.65,9.73-44.55,13.76-67.26,5.19-26.62,7.78-56.32,6.03-84.37-1.15-24.56-7.58-51.67-12.45-74.45-3.27-15.7-4.56-31.49-.46-47.44,6.81-26.4,25.12-54.34,48.11-71.43,22.54-16.7,53.1-23.89,82.98-26.21,28.64-2.35,56.04,2.57,83.29,8.56,61.42,14.48,103.37,12.46,163.47-5.08,40-11.91,78.7-26.25,121.15-17.74,28.46,4.92,58.24,14.18,87.74,17.28,19.43,2.29,38.51,2.32,57.8,1.01,24.07-1.56,47.66-4.74,70.95-3.79,36.28,1.29,72.16,10.34,102.57,27.89,73.66,42.67,54.1,106.05,28.9,167.35-22.94,50.32-35.02,75.45-10.7,128.4,11.25,25.35,23.23,50.68,23.39,78.02.85,31.56-16.03,64.7-47.65,82.5-51.75,28.72-115.53,5.86-163.93-16.99-34.56-16.06-61.86-28.07-101.37-20.39-75.77,15.2-152.63,38.97-229.93,49.38-72.3,11.66-93.39-31.01-155.47-43.09-22.56-4.18-45.89-1.52-68.78-1.32h-.15Z"/>
    <g>
      <path class="cls-1" d="M1069.98,100.86c-1.14-4.85,12.1-16.42,25.81-24.69,24.52-15.63,60.59-38.51,85.68-54.45,12.12-7.42,18.68-12.19,28.63-14.69,20.36-3.16,10.71,18.87-7.92,31.82-16.72,11.75-35.85,21.6-54,32.49-13.1,7.5-25.61,15.2-38.87,22.17-18.44,9.37-37.43,15.06-39.33,7.44v-.09Z"/>
      <path class="cls-1" d="M1110.35,227.16c2.3-4.32,19.6-7.29,35.17-7.71,29.64-1.37,73.96-3.33,103.98-4.65,13.54-.39,21.44-1.01,29.99,1.47,16.52,6.62-3.01,18.73-26.69,20.8-20.63,1.71-41.44.96-62.37,1.42-22.39.09-69.97,2.49-79.77-7.77-.97-1.1-1.16-2.3-.37-3.5l.05-.07Z"/>
      <path class="cls-1" d="M1110.07,148.71c8.33-10.32,54.03-17.87,75.41-23.61,13.46-3.17,26.75-6.39,37.83-8.92,8.83-2.15,23.24-4.67,28.64-3.44,7.51,1.17,7.44,5.32,3.1,9.42-14.21,13.65-55.96,19.29-81.11,24.68-19.12,4.22-51.21,9.58-61.29,5.88-2.43-.74-3.75-2.18-2.61-3.94l.05-.08Z"/>
    </g>
    <g>
      <path class="cls-1" d="M217.08,95.85c1.19-4.84-11.9-16.56-25.51-25-24.33-15.92-60.12-39.23-85.03-55.47-12.03-7.56-18.53-12.41-28.45-15.04-20.32-3.4-10.93,18.74,7.54,31.91,16.58,11.95,35.59,22.03,53.6,33.13,13.01,7.66,25.43,15.5,38.6,22.64,18.32,9.59,37.24,15.51,39.24,7.91v-.09Z"/>
      <path class="cls-1" d="M175.21,221.67c-2.24-4.35-19.51-7.52-35.08-8.13-29.62-1.72-73.91-4.21-103.91-5.9-13.53-.56-21.43-1.27-30.01,1.11-16.6,6.43,2.79,18.76,26.43,21.12,20.6,1.95,41.42,1.46,62.34,2.17,22.39.36,69.93,3.33,79.86-6.81.98-1.09,1.19-2.29.41-3.5l-.05-.07Z"/>
      <path class="cls-1" d="M176.43,143.22c-8.21-10.42-53.81-18.52-75.12-24.51-13.42-3.33-26.68-6.71-37.72-9.37-8.8-2.25-23.18-4.94-28.59-3.78-7.53,1.08-7.5,5.23-3.21,9.38,14.05,13.82,55.72,19.96,80.81,25.65,19.06,4.45,51.09,10.19,61.22,6.61,2.44-.71,3.78-2.13,2.66-3.91l-.05-.08Z"/>
    </g>
  </g>
</svg>