<?xml version="1.0" encoding="UTF-8"?>
<svg id="Laag_2" data-name="Laag 2" xmlns="http://www.w3.org/2000/svg" viewBox="0 0 750.82 192.76">
  <defs>
    <style>
      .cls-1 {
        fill: #1d1d1b;
      }
    </style>
  </defs>
  <g id="Laag_1-2" data-name="Laag 1">
    <g>
      <path class="cls-1" d="M29.92,141.49l-3.26-.76-2.69-1.34h-1.73s-.77-.38-.77-.38l-2.49-.96-4.03-1.91-2.49-1.34-1.53-1.15-2.49-1.53-1.73-1.34-1.73-.96-1.34-1.34-1.92-1.53-1.53-1.72.19-.77L0,123.5v-.96s.57-.77.57-.77l1.15-.96.77-.96v-.96l.38-.58,1.34-1.34.58-.19.19-1.15.77-.77.19-.77.38-.58,1.53-1.34.77-1.92.96-.38.57-1.73.77-1.53.96-.58.19-1.15.38-.38.57-1.15,1.53-.19.96.77h.38l-.19-.77,1.15-.58,3.84,2.49,4.8,3.25,3.65,2.11,3.45.57,4.03.19,4.98-1.92,3.07-1.92,2.68-4.41,2.1-6.33-.19-3.83-.77-1.53-.96-2.11-.77-2.3-.77-.96-.96-1.15-1.34-.77-.96-.96-1.34-1.72-1.34-1.53-1.53-1.34-.96-1.15-1.34-.96-5.95-4.98-3.84-4.02-2.69-3.06-5.37-6.32-3.84-6.7-1.15-3.07-1.15-4.6-.39-5.37.18-7.09.76-3.07,2.49-4.8,1.53-2.49,1.34-1.92.96-1.34,2.68-2.88,2.49-2.49,2.49-2.11,3.07-2.3,3.83-2.5,4.98-1.73,2.68-1.15,4.22-1.35,8.05-.97,9.01.37,5.37.57,1.92.38,1.15.58.19.77-.58.19-.38.38.58.77.96.38-.19,1.53-.58.96.77,2.68h-.77s.38.58.38.58l.19.96v1.53s.58,1.15.58,1.15v.58s-.77.19-.77.19l-.19.77,1.15,1.15-.58.58.58.58-.19.96v.96s-.96.38-.96.38v.38s.58.58.58.58l1.15.57.58.58v.38l-.58.19-.96.38.19,1.53v1.53s-.57.77-.57.77v2.11s-.57,2.49-.57,2.49l-.57.77-1.34-.96-4.6-1.34-3.45-.57h-7.48s-4.6,1.55-4.6,1.55l-1.34,1.15-1.53,1.15-1.72,1.92-.76,4.22,2.3,3.83,4.03,3.83,5.18,4.98,3.26,2.87,3.07,3.26,5.37,5.36,5.37,6.51,4.8,6.51,1.54,3.26,2.5,7.09,1.35,6.9.39,4.6-.38,4.79-2.29,7.29-1.91,4.03-4.02,6.9-3.45,3.84-2.11,1.73-1.34,1.73-5.36,4.61-3.83,2.5-4.02,2.11-4.79,1.73-3.83,1.15-3.07.58-6.9.58-5.56-.38Z"/>
      <path class="cls-1" d="M109.5,175.13l-.77-.57-.57.96-.57.58h-.19l-.38-.77-.96-.96-.77-1.15-.19-1.53-.58-2.11v-2.3s.38-.96.38-.96l-.38-1.34.19-1.53-.2-4.41-.2-4.98-.96-2.11-.19-1.15.96-1.34.19-3.45-.39-2.88-.38-.57h-.19v.38s-.19.38-.19.38h-.38l-.19-.58.19-2.88.19-5.75v-3.83s-.39-1.92-.39-1.92l.57-1.73-.39-1.34.38-2.3-.19-1.53.19-1.92v-2.68s-.19-1.73-.19-1.73v-1.53s.19-1.53.19-1.53l-.19-1.92.19-1.73v-1.34s.19-1.53.19-1.53l-.38-1.34v-.77l.38-2.3v-2.68s.38-1.53.38-1.53v-2.11s.38-1.92.38-1.92l.19-1.73-.38-.96.19-.96.57-1.15v-2.3s-.2-2.49-.2-2.49l.38-3.26v-3.07s.19-1.15.19-1.15l-.19-.77v-3.07s.18-3.84.18-3.84l.19-6.13.37-9.2.18-8.43-.2-4.03.19-1.34,1.15-.77.77.19,1.73-.58,1.73.38h.77l.77-.96.96.19.77.19.77.77.58-.38.58-.77,1.15.19.96.19,1.15-.19h1.92s1.15-.58,1.15-.58l1.92.19,1.92-.58,2.11.19,1.34-.19.96.58.96-.38.77.57h11.31s4.98-.21,4.98-.21l7.86.95,3.26.76,5.75,1.91,3.65,1.91,6.33,4.98,5.18,5.74,2.3,3.64,3.27,8.24,1.73,9.01.58,8.24-.19,3.64-.57,4.98-1.34,4.41-1.34,2.88-2.87,5.18-3.25,4.99-3.45,4.03-4.6,4.03-7.09,4.8-5.94,1.92-5.56,1.35-9.01.97h-3.45s-3.26.39-3.26.39l-1.92-.19-.77.19-.38,1.92v1.92s-.57.96-.57.96l.58,1.53v1.92s-.76,1.92-.76,1.92l.38,1.34.38.96-.57,1.34-.19,2.3v3.83s.2,2.11.2,2.11l-.38,4.6-.19,4.22-.38,4.79-.57,4.98-1.34,1.53-.77.77-.38-.58-.96.38-.96.96-.96,1.34-1.15,1.34-.96-.19-.77.58-.38.19h-.38v-.77s.19-.58.19-.58l-.38-.19-.38.19-.96.58-.38,1.15-.19.77-.77.19-.77-.77-.19-.96-.38-.19-.38.58-.58.58-.96.38-.57,1.34-.57.96h-.38s0-1.34,0-1.34h-.77l-.96,1.34-1.73.19-2.11-1.34ZM137.4,97.28l7.09-1.35,2.88-.58,3.64-1.34,3.07-1.92,1.34-.77,1.92-2.3,1.91-4.79v-5.94s-2.7-6.71-2.7-6.71l-4.6-2.87-2.3-.76-1.73.19-1.73-.38h-5.37s-4.98.59-4.98.59l-.38,3.07-.38,4.03.19,1.53-.19,2.3-.38,5.37-.19,4.98v2.68s-.57,2.88-.57,2.88l.39,2.3.58.19,2.49-.39Z"/>
      <path class="cls-1" d="M218.89,161.93l-1.51-.33h-2.12s-3.04-.47-3.04-.47l-2.15.38-1.09-.68-1.91-.17-3.11.3-1.13-.29-1.7-.35-.9-.66-.75-.26-.24-1.56.78-2.24.45-2.85.73-3.78.66-5.14.28-3.05.68-5.33.03-2.5.47-.92.35-3.82.57-4.18.55-6.11.99-6.65,1.04-11.45.66-5.14.57-6.3.52-3.61.54-5.92.23-6.72.45-7.08.22-6.72.33-3.63,1.02-7.03.69-3.4.49-3.23.61-6.68.09-3.07.47-5.15,1.37-.26.83-.69.94.28,1.74-.04,2.69.05,2.1.19.97-.1,3.44.31.78-.12.76.07,1.93-.02,2.5.03,1.2-.47,2.08.38,3.47-.07,3.26.1,1.58-.43,1.91.17,14.63,2.1,2.65.43,2.27.4,2.62.82,3.64.14,9.16.83.78-.12,1.7.35,3.05.28,3.42.5,2.27.4,1.16-.09.66,1.21.64,1.41.21,1.94,1.02,1.44.7,5.07-.78,2.24-.5,1.3-.09.95.8,3.92.49,1.01-1.21.66-1.6.62-1.94,2.33-2.52,2.27-2.45,1.51-1.32-.31-1.09-.68-.78.12-1.13-.3-3.04-.47-2.88-.07-1.01.49-5.54-.5-22.56-1.66-7.25-.66-.31,1.32-1.14,12.6-.68,5.33-.02,2.31.73.45,6.89.43,11.65,1.06,5.69.9,2.1.19,1.67.73,1.54-.05,1.91.17,1.89.36,1.3.5,1.49.52.99-.3,1.53.14,1.74,2.08.24,1.56.02,1.93,1.2,1.65-.9,1.46.82,1.61-.49,1.11.02,1.93.64,1.4-.87,1.08-.52,1.49-.33,1.51-.29,1.13.71.64.52.62-.64.71-.97.1-1.42.83-1.54,2.17.47,1.2-.05.57-2.34.36-1.48,1.41-3.25-.29-8.36-1.14-6.49-.59-6.32-.38-8.43-.38-4.83.14-1.61.82-.29,1.13-.75,3.97-.85,7.24-.64,4.95-.52,3.61-.07,2.88,3.8.54,4.2.38,1.87.55,5.54.5,2.26.59,4.72,1.01,4.6.22,13.36,1.21,2.52-.16,3.04.47,3.07.09,2.26.59.66,1.21.43,1.58.05,1.54,1.06,1.06-.28.94-.85.88.69.83.26,1.37-.8.31-.59.14-.05.57.88.85.26,1.37-.94,1.84-.61,2.45-.88,1.27,1.25,1.08.71.64-.43.54-1.58.43-1.82.99-.73,1.67.09,1.16-.24.56-1.2.47-1.58.43-1.21.66-3.61-.52-4.04.02-12.03-1.09-2.33.17-1.56.24-2.5-.03-10.5-.95-6.32-.38-8.02-.73-3.45-.12-.83.69-.38-.04-.12-.78Z"/>
      <path class="cls-1" d="M325.76,173.08l-2.86.29-2.38-.73-.74-1.66-.38-1.89.08-1.16-.33-1.32.44-1.39-.19-1.91-.06-2.5-.19-1.91-.34-1.51-.21-2.1-.02-2.12-.72-5.32-.33-5.17-.23-4.22-.4-5.93-.17-3.64-.21-4.02-.38-5.74-.02-4.04-.42-4.2-.23-4.22.13-2.52-.51-3.22-.21-4.02-.27-6.52-.23-8.07-.29-6.71-.4-5.93-.73-5.32-.15-5.38-.71-3.2-.82-8.2-.04-2.31.23-1.56-.31-3.05.36-2.16,1.51-.34,2.29-.23,1.89-.38.93-.29.61.32.53-.44,1.18.27,1.13-.31.73-.46,1.22.65.4.15.53-.44,1.53-.15,1.26-.9,1.91-.19,1.87-.57,1.35.06.71-.65.76-.08.8.3.61.32,3.01-.69.65.7.72-.46.44.53.48,2.84.61,4.18.57,1.87.52,5.15.38,5.74.04,4.23-.76.08-.36,2.15.34,5.36.34,3.43.08,4.62.21,5.95.04,2.31.11,3.07.23,4.22.34,5.36.11,5,.32,5.17.33,3.24.29,4.79.1,4.81-.02,3.66.19,3.83-.48,1.01.57,1.87-.1,2.9.06,2.5-.42,1.58.61,2.25-.02,1.74,1.09,1.24,2.1-.21h1.93s2.08-.4,2.08-.4l4.77-.48,5.38-.15,3.47.04,2.65-.46,1.34-.13,1.56.23,2.5-.06h1.93s1.7-.36,1.7-.36l2.48-.25,1.13-.3,2.29-.23,2.84-.48,3.62-.36,2.69-.08.3,1.12.33,3.24.34,1.51-.59,1.79.8.3.63.52-.12.78-.29.99.29.93-.34.42-.13.59.13,1.34-.67,1.03.82.5,1.35.06.84.69-.9.67-.84,1.24.48.92.99.29.04.38-.53.44-.69.84.34,1.51-.51.63-.32.61.31,1.13-.8,1.62-.86,1.05-.74.27-2.12.02-2.46.44-.86,1.05-1.47.72-1.57-.23-.25-.55-.4-.15-.74.27-.52.63-.63-.52-1.56-.23-2.27.42-.69.84-.57.06-1.98-.57-2.69.08-2.08.4-1.05,1.07-1.53.15-1.51.34-1.74-.02h-1.93s-11.44,1.15-11.44,1.15l-2.65.46-4.96.5-7.65.57-7.06.7-.72.46-1.16-.08Z"/>
      <path class="cls-1" d="M465.62,190.99l-2.49-.17-2.06-.72-3.79-.83-3.04-.59-2.03-1.29-2.24-.92-.52-.8-.54-.61-.13-.97-.44-1.95.6-3.23,1.13-16.64.06-3.65.68-15.71.53-7.84.91-7.81,1.05-7.04.64-3.8.71-4.75.73-5.14.48-4.19.44-3.62.13-1.91.51-4.77,1.05-7.04.82-6.48.64-6.68.12-7.48.8-6.09.25-3.63,1.39-.67,1.9.32.97-.13,2.1.14,2.86.39,1.75-.27,1.13.27,3.44.23.78-.14,1.13.27,1.93-.06,2.28.35,2.12-.05,2.28.35,1.9.32,1.38-.48,2.13-.24,3.66-.14,5.55.38,3.62.44,6.83,1.23,7.48,3,5.11,4,2.89,2.69,2.65,3.45,3.14,4.63,1.89,6.09,1.15,5.65-.03,3.26.33,3.67-.16,5.18-1.12,5.11-2.26,5.03-1.62,4.12-1.89,2.37.81,2.17,2.29,3.04,1.02,1.99.44,1.95,2.9,5.38,2.57,7.48,1.51,6.06.15,3.47.35,3.29-.43,6.31-.78,5.9-.56,2.65-.69,1.68-.55,2.46-1.52,2.59-1.53,2.78-2.98,4.22-2.75,3.66-.41.36-.56-.23-1.42,1.06-1.8,1.03-1.06,1.47-2.23,1.77-1.84,1.6-1.33-.28-.98.32-1.98.83-1.76.46-2.95.95-2.56.98-.36-.41-.14-.78-3.09.17-5.23.61-6.56.32-8.05-.35-4.21-.29-6.11-.61-3.25-.22-4.06.3-2.08-.53ZM489.53,164.18l.97-.13,1.42-1.06,2.33-.42,1.91.13,2.54-.6,5.06-1,3.05-2.48,1.51-2.39,2.24-4.65.92-5.12.18-2.68-.3-1.17-.77-2.74-1.59-2.03-1.07-1.23-2.4-1.51-1.86-.89-2.46-.55-3-1.16-4.93-.91-6.31-.43-3.68.52-.69,4.56-.56,8.22-.34,7.85-.24,6.32-.05,3.65,1.52.3.37.22v.19s-.26.75-.26.75l6.5.44ZM492.25,104.23l5.39-.21,1.58-.66,2.35-.61,2.37-.99,1.29-2.03.95-2.62.12-1.72-.09-1.54-.83-1.98-1.02-1.99-1.58-2.22-1.44-1.44-1.89-.51-4.77-.52-4.4-.3-1.37.29-.56,2.65-.41,3.24-.4,3.05-.5,4.58-.62,3.42.07,1.73,1.9.32,3.84.07Z"/>
      <path class="cls-1" d="M585.22,166.49l-1.54-.13-2.1.27-3.07-.08-2.08.66-1.17-.53-1.92.07-3.04.69-1.16-.15-1.73-.13-.98-.54-.77-.16-.44-1.52.49-2.32.08-2.88.24-3.85v-5.18s-.12-3.06-.12-3.06v-5.37s-.3-2.48-.3-2.48l.35-.97-.15-3.83.03-4.22-.23-6.13.13-6.72-.44-11.49v-5.18s-.24-6.32-.24-6.32l.05-3.65-.22-5.94-.64-6.69-.46-7.08-.64-6.69-.14-3.64.11-7.1.25-3.46.07-3.26-.25-6.7-.31-3.06-.19-5.17,1.33-.43.74-.8.97.16,1.72-.26,2.67-.29,2.11-.08.95-.23,3.45-.13.76-.22.77-.03,1.91-.26,2.48-.29,1.13-.62,2.11.11,3.43-.51,3.25-.31,1.51-.63,1.92-.07,14.78.21,2.69.09,2.31.1,2.7.47,3.63-.33,9.19-.35.76-.22,1.73.13,3.06-.12,3.45.06,2.31.11,1.14-.24.81,1.12.82,1.31.46,1.9,1.2,1.3,1.34,4.94-.49,2.32-.33,1.35.04.96,1.29,3.79.61.94-1.12.81-1.5.82-1.63,2.56-2.21,2.58-2.23,1.81-1.35-.14-1.17-.53-.76.22-1.16-.15-3.07-.08-2.87.3-.94.61-5.55.21-22.59,1.24-7.28.28-.14,1.35.48,12.64v5.37s.29,2.29.29,2.29l.78.35,6.89-.45,11.68-.44,5.76.17,2.11-.08,1.75.51,1.53-.25,1.92-.07,1.92.12,1.35.33,1.55.33.94-.42,1.53-.06,1.99,1.84.44,1.52.27,1.91,1.4,1.48-.71,1.56,1.02,1.5-.34,1.16.26,1.91.82,1.31-.72,1.18-.32,1.55-.13,1.54-.15,1.16.79.55.6.55-.54.79-.95.23-1.3,1.01-1.25,2.35.62,1.13.02.57-2.28.66-1.28,1.58-3.26.12-8.44-.06-6.51.25-6.31.43-8.41.7-4.77.76-1.5,1.02-.15,1.16-.23,4.04.09,7.29v4.99s-.06,3.65-.06,3.65l.3,2.87,3.84.05,4.21-.16,1.93.31,5.55-.21,2.31.3,4.81.39,4.59-.37,13.41-.51,2.48-.48,3.07.07,3.06-.31,2.31.3.81,1.12.63,1.51.25,1.53,1.18.91-.15.96-.73.99.79.74.43,1.33-.75.41-.57.21.02.57.99.73.43,1.33-.69,1.94-.29,2.51-.72,1.37,1.38.91.79.55-.36.59-1.51.63-1.68,1.21-.51,1.75.24,1.14-.17.58-1.13.62-1.51.63-1.12.81-3.65-.05-4.01.53-12.07.46-2.28.47-1.52.44-2.48.29-10.54.4-6.31.43-8.05.3-3.44.32-.74.79-.38.02-.22-.76Z"/>
      <path class="cls-1" d="M679.48,181.2l-2.87.11-2.34-.87-.64-1.7-.27-1.91.15-1.16-.24-1.33.52-1.36-.07-1.92.09-2.5-.07-1.92-.25-1.52-.08-2.11.11-2.12-.4-5.35v-5.18s.01-4.22.01-4.22l-.04-5.95.05-3.65.03-4.03-.03-5.75.23-4.04-.16-4.21.02-4.22.29-2.5-.32-3.25.04-4.03.13-6.53.26-8.07.12-6.72-.04-5.95-.4-5.36.17-5.38-.51-3.24-.32-8.24.1-2.31.32-1.55-.12-3.06.49-2.13,1.52-.25,2.3-.09,1.91-.27.95-.23.59.36.56-.4,1.16.34,1.14-.24.75-.41,1.18.72.39.18.56-.41,1.53-.06,1.31-.82,1.92-.07,1.9-.46,1.35.14.74-.61.77-.03.78.35.59.36,3.05-.5.61.74.75-.41.4.56.3,2.86.36,4.21.46,1.9.2,5.17.03,5.75-.22,4.23-.77.03-.49,2.13.02,5.37.14,3.45-.2,4.61-.15,5.95-.1,2.31-.07,3.07-.03,4.22.02,5.37-.19,4.99v5.18s.14,3.26.14,3.26v4.8s-.2,4.8-.2,4.8l-.24,3.66-.04,3.84-.54.98.46,1.9-.27,2.89-.09,2.5-.51,1.56.47,2.28-.12,1.73,1.01,1.3,2.11-.08,1.92.12,2.1-.27,4.79-.19,5.38.17,3.46.25,2.67-.3,1.34-.05,1.55.32,2.5.1,1.92.12,1.72-.26,2.49-.1,1.14-.24,2.3-.09,2.87-.3,3.64-.14,2.69.09.24,1.14.13,3.26.25,1.52-.7,1.75.78.35.6.55-.16.77-.35.97.23.95-.37.4-.17.58.05,1.34-.73.99.79.55,1.35.14.8.74-.93.61-.91,1.19.42.94.97.35.02.38-.56.4-.74.8.25,1.52-.55.6-.36.59.24,1.14-.9,1.57-.92.99-.76.22-2.11-.11-2.48.29-.92,1-1.51.63-1.55-.32-.21-.57-.39-.18-.76.22-.55.6-.6-.55-1.55-.32-2.29.28-.74.8-.57.02-1.95-.69-2.69-.09-2.1.27-1.11,1-1.53.06-1.53.25-1.73-.12-1.92-.12-11.49.45-2.67.3-4.98.19-7.67.11-7.09.28-.75.41-1.16-.15Z"/>
    </g>
  </g>
</svg>